<svg width="384" height="88" viewBox="0 0 384 88" fill="none" xmlns="http://www.w3.org/2000/svg">
<rect x="1.83301" y="1.5" width="380.333" height="85" rx="42.5" fill="#170617" fill-opacity="0.8"/>
<rect x="30.333" y="26" width="158" height="36" rx="18" fill="#331433"/>
<path d="M63.153 45.108H61.907L62.271 43.036H63.643V41.244H62.579L62.929 39.2H61.081L60.731 41.244H58.701L59.051 39.2H57.203L56.853 41.244H55.313V43.036H56.545L56.181 45.108H54.823V46.9H55.873L55.523 49H57.371L57.735 46.9H59.751L59.401 49H61.249L61.599 46.9H63.153V45.108ZM58.351 42.98H60.465L60.101 45.164H57.987L58.351 42.98ZM74.101 49.168C76.005 49.168 77.111 48.496 78.119 47.418L76.747 46.032C75.977 46.746 75.291 47.18 74.171 47.18C72.491 47.18 71.329 45.78 71.329 44.1V44.072C71.329 42.392 72.519 41.02 74.171 41.02C75.165 41.02 75.907 41.44 76.677 42.126L78.049 40.544C77.153 39.648 76.019 39.032 74.185 39.032C71.175 39.032 69.075 41.314 69.075 44.1V44.128C69.075 46.942 71.217 49.168 74.101 49.168ZM83.1662 49.168C85.5042 49.168 87.2402 47.418 87.2402 45.262V45.234C87.2402 43.064 85.5042 41.356 83.1942 41.356C80.8562 41.356 79.1202 43.106 79.1202 45.262V45.29C79.1202 47.46 80.8562 49.168 83.1662 49.168ZM83.1942 47.334C82.0182 47.334 81.2202 46.368 81.2202 45.262V45.234C81.2202 44.114 81.9482 43.19 83.1662 43.19C84.3422 43.19 85.1402 44.156 85.1402 45.262V45.29C85.1402 46.41 84.4122 47.334 83.1942 47.334ZM88.7811 49H90.9091V44.814C90.9091 43.806 91.3991 43.288 92.1971 43.288C92.9951 43.288 93.4431 43.806 93.4431 44.814V49H95.5711V44.814C95.5711 43.806 96.0611 43.288 96.8591 43.288C97.6571 43.288 98.1051 43.806 98.1051 44.814V49H100.233V44.114C100.233 42.308 99.2811 41.356 97.6991 41.356C96.6771 41.356 95.8931 41.762 95.2351 42.546C94.8431 41.776 94.1151 41.356 93.1211 41.356C92.0431 41.356 91.3991 41.93 90.9091 42.56V41.496H88.7811V49ZM102.126 40.67H104.366V38.78H102.126V40.67ZM102.182 49H104.31V41.496H102.182V49ZM106.308 49H108.436V44.814C108.436 43.806 108.94 43.288 109.766 43.288C110.592 43.288 111.054 43.806 111.054 44.814V49H113.182V44.142C113.182 42.406 112.258 41.356 110.634 41.356C109.57 41.356 108.926 41.93 108.436 42.56V41.496H106.308V49ZM118.391 51.268C119.847 51.268 120.911 50.974 121.625 50.26C122.255 49.63 122.577 48.636 122.577 47.306V41.496H120.449V42.476C119.875 41.846 119.189 41.356 118.027 41.356C116.305 41.356 114.695 42.616 114.695 44.856V44.884C114.695 47.124 116.277 48.384 118.027 48.384C119.161 48.384 119.847 47.936 120.477 47.166V47.53C120.477 48.874 119.791 49.574 118.335 49.574C117.327 49.574 116.585 49.322 115.801 48.888L115.073 50.484C116.025 50.988 117.159 51.268 118.391 51.268ZM118.643 46.62C117.593 46.62 116.823 45.934 116.823 44.884V44.856C116.823 43.834 117.607 43.12 118.643 43.12C119.693 43.12 120.477 43.834 120.477 44.856V44.884C120.477 45.906 119.693 46.62 118.643 46.62ZM132.386 49.14C134.5 49.14 135.984 48.048 135.984 46.102V46.074C135.984 44.366 134.864 43.666 132.876 43.134C131.182 42.686 130.762 42.504 130.762 41.846V41.818C130.762 41.328 131.182 40.964 132.022 40.964C132.862 40.964 133.688 41.328 134.57 41.93L135.69 40.306C134.682 39.508 133.492 39.06 132.05 39.06C130.034 39.06 128.62 40.236 128.62 42.014V42.042C128.62 43.974 129.88 44.548 131.868 45.038C133.506 45.444 133.842 45.738 133.842 46.284V46.312C133.842 46.886 133.324 47.236 132.428 47.236C131.308 47.236 130.398 46.774 129.502 46.046L128.228 47.572C129.404 48.636 130.888 49.14 132.386 49.14ZM141.313 49.168C143.651 49.168 145.387 47.418 145.387 45.262V45.234C145.387 43.064 143.651 41.356 141.341 41.356C139.003 41.356 137.267 43.106 137.267 45.262V45.29C137.267 47.46 139.003 49.168 141.313 49.168ZM141.341 47.334C140.165 47.334 139.367 46.368 139.367 45.262V45.234C139.367 44.114 140.095 43.19 141.313 43.19C142.489 43.19 143.287 44.156 143.287 45.262V45.29C143.287 46.41 142.559 47.334 141.341 47.334ZM150.61 49.168C152.948 49.168 154.684 47.418 154.684 45.262V45.234C154.684 43.064 152.948 41.356 150.638 41.356C148.3 41.356 146.564 43.106 146.564 45.262V45.29C146.564 47.46 148.3 49.168 150.61 49.168ZM150.638 47.334C149.462 47.334 148.664 46.368 148.664 45.262V45.234C148.664 44.114 149.392 43.19 150.61 43.19C151.786 43.19 152.584 44.156 152.584 45.262V45.29C152.584 46.41 151.856 47.334 150.638 47.334ZM156.224 49H158.352V44.814C158.352 43.806 158.856 43.288 159.682 43.288C160.508 43.288 160.97 43.806 160.97 44.814V49H163.098V44.142C163.098 42.406 162.174 41.356 160.55 41.356C159.486 41.356 158.842 41.93 158.352 42.56V41.496H156.224V49Z" fill="#C6AAC6"/>
<path d="M219.6 62.1837H220.975V54.1689H223.884V52.9908H220.957V52.2411C220.957 50.938 221.493 50.2775 222.564 50.2775C223.046 50.2775 223.403 50.3668 223.902 50.5096V49.3136C223.456 49.1529 223.028 49.0815 222.385 49.0815C221.546 49.0815 220.886 49.3136 220.404 49.7956C219.868 50.3311 219.6 51.1165 219.6 52.1697V52.9729H218.333V54.1689H219.6V62.1837Z" fill="#C6AAC6"/>
<path d="M229.038 62.3979C231.823 62.3979 233.875 60.2023 233.875 57.5783V57.5426C233.875 54.9365 231.858 52.7587 229.074 52.7587C226.271 52.7587 224.254 54.9543 224.254 57.5783V57.614C224.254 60.2202 226.271 62.3979 229.038 62.3979ZM229.074 61.1662C227.128 61.1662 225.664 59.5597 225.664 57.5783V57.5426C225.664 55.5969 227.039 53.9725 229.038 53.9725C230.984 53.9725 232.465 55.5969 232.465 57.5783V57.614C232.465 59.5419 231.073 61.1662 229.074 61.1662Z" fill="#C6AAC6"/>
<path d="M235.728 62.1837H237.102V58.5065C237.102 55.7219 238.744 54.276 240.762 54.276H240.869V52.7944C239.119 52.7409 237.781 53.8297 237.102 55.3649V52.9551H235.728V62.1837Z" fill="#C6AAC6"/>
<path d="M247.271 62.1837H248.681V57.7747H251.715C254.375 57.7747 256.624 56.3823 256.624 53.6869V53.6512C256.624 51.1879 254.768 49.6885 251.947 49.6885H247.271V62.1837ZM248.681 56.4894V50.9915H251.84C253.857 50.9915 255.196 51.9197 255.196 53.7048V53.7405C255.196 55.3827 253.84 56.4894 251.769 56.4894H248.681Z" fill="#C6AAC6"/>
<path d="M262.444 60.6486L259.088 52.9551H257.571L261.766 62.148C261.212 63.4511 260.712 63.8795 259.873 63.8795C259.284 63.8795 258.874 63.7724 258.428 63.5403L257.963 64.6292C258.588 64.9327 259.159 65.0933 259.927 65.0933C261.301 65.0933 262.212 64.3971 262.997 62.4872L266.871 52.9551H265.407L262.444 60.6486Z" fill="#C6AAC6"/>
<path d="M271.496 62.3444C272.156 62.3444 272.674 62.2194 273.156 61.9517V60.7735C272.674 61.0056 272.299 61.0948 271.817 61.0948C270.889 61.0948 270.264 60.7021 270.264 59.5597V54.1689H273.192V52.9551H270.264V50.1704H268.89V52.9551H267.605V54.1689H268.89V59.7382C268.89 61.6125 269.996 62.3444 271.496 62.3444Z" fill="#C6AAC6"/>
<path d="M274.987 62.1837H276.362V56.9C276.362 55.1685 277.54 54.0082 279.128 54.0082C280.771 54.0082 281.681 55.0793 281.681 56.7929V62.1837H283.055V56.4537C283.055 54.2581 281.735 52.7587 279.521 52.7587C277.932 52.7587 276.986 53.562 276.362 54.5616V49.1529H274.987V62.1837Z" fill="#C6AAC6"/>
<path d="M289.562 62.3979C292.347 62.3979 294.399 60.2023 294.399 57.5783V57.5426C294.399 54.9365 292.382 52.7587 289.598 52.7587C286.795 52.7587 284.778 54.9543 284.778 57.5783V57.614C284.778 60.2202 286.795 62.3979 289.562 62.3979ZM289.598 61.1662C287.652 61.1662 286.188 59.5597 286.188 57.5783V57.5426C286.188 55.5969 287.563 53.9725 289.562 53.9725C291.508 53.9725 292.989 55.5969 292.989 57.5783V57.614C292.989 59.5419 291.597 61.1662 289.598 61.1662Z" fill="#C6AAC6"/>
<path d="M296.252 62.1837H297.626V56.9C297.626 55.1685 298.804 54.0082 300.393 54.0082C302.035 54.0082 302.946 55.0793 302.946 56.7929V62.1837H304.32V56.4537C304.32 54.2581 302.999 52.7587 300.786 52.7587C299.197 52.7587 298.251 53.562 297.626 54.5616V52.9551H296.252V62.1837Z" fill="#C6AAC6"/>
<path d="M218.333 23.256H222.067V40.3355H218.333V23.1925V23.256ZM226.271 23.256H234.022C236.155 23.256 237.787 23.8275 238.948 24.9703C239.436 25.4956 239.815 26.1146 240.063 26.7908C240.311 27.4669 240.423 28.1864 240.391 28.9069V28.9386C240.391 30.3354 240.077 31.4783 239.387 32.3354C238.71 33.202 237.808 33.8614 236.783 34.2402L240.893 40.3672H236.563L232.923 34.8751H230.037V40.3672H226.334V23.1925L226.271 23.256ZM233.802 31.5418C234.712 31.5418 235.402 31.3513 235.904 30.9069C236.148 30.6841 236.34 30.4087 236.465 30.101C236.59 29.7933 236.645 29.4612 236.626 29.1291V29.0973C236.626 28.2719 236.375 27.6688 235.873 27.2561C235.339 26.8434 234.618 26.6211 233.708 26.6211H230.005V31.5418H233.802ZM252.001 40.6529C249.597 40.6805 247.278 39.7579 245.537 38.0815C244.718 37.2746 244.073 36.3056 243.641 35.235C243.209 34.1644 243 33.0153 243.027 31.8592V31.764C243.006 30.0114 243.51 28.2935 244.473 26.8369C245.437 25.3803 246.814 24.2535 248.424 23.6052C249.522 23.1608 250.714 22.9068 252.032 22.9068C254.429 22.8961 256.736 23.8297 258.464 25.51C259.283 26.3169 259.928 27.2859 260.36 28.3565C260.792 29.4271 261.001 30.5763 260.975 31.7323V31.764C260.996 33.5166 260.492 35.2345 259.528 36.6911C258.565 38.1477 257.187 39.2745 255.578 39.9228C254.445 40.4023 253.229 40.6504 252.001 40.6529ZM252.001 37.1609C252.685 37.1703 253.365 37.0371 253.996 36.7695C254.628 36.5019 255.198 36.1056 255.672 35.6053C256.601 34.5864 257.106 33.245 257.084 31.8592V31.764C257.114 30.352 256.596 28.9843 255.641 27.9545C255.167 27.4514 254.598 27.0512 253.966 26.7783C253.335 26.5054 252.656 26.3655 251.969 26.3672C251.288 26.368 250.614 26.5091 249.988 26.782C249.362 27.0549 248.798 27.4538 248.33 27.9545C247.382 28.9764 246.864 30.3312 246.886 31.7323V31.764C246.885 33.1708 247.399 34.5282 248.33 35.5736C248.8 36.0497 249.334 36.4307 249.961 36.7164C250.589 37.0339 251.279 37.1609 252.032 37.1609H252.001ZM264.301 23.256H267.752L275.659 33.7958V23.256H279.299V40.3355H276.161L267.94 29.4465V40.3355H264.269V23.1925L264.301 23.256Z" fill="#C6AAC6"/>
<path d="M283.159 23.2562H289.497C290.438 23.2562 291.317 23.3832 292.101 23.6372C292.886 23.8911 293.545 24.2404 294.11 24.6848C294.663 25.1881 295.103 25.8056 295.401 26.4956C295.699 27.1855 295.847 27.9321 295.835 28.6848V28.7166C295.835 29.669 295.647 30.4626 295.302 31.161C294.957 31.8594 294.455 32.4309 293.859 32.9071C293.229 33.3867 292.516 33.7421 291.756 33.9547C290.94 34.2087 290.093 34.3039 289.183 34.3039H285.104V40.3357H283.159V23.2562ZM289.277 32.5896C289.968 32.5896 290.595 32.4944 291.16 32.3039C291.695 32.1468 292.195 31.8882 292.635 31.542C293.036 31.2135 293.357 30.7969 293.574 30.3237C293.792 29.8506 293.9 29.3335 293.89 28.8118V28.7483C293.89 27.542 293.513 26.5896 292.666 25.9864C291.819 25.3832 290.721 25.034 289.372 25.034H285.073V32.5896H289.277ZM299.318 23.2562H305.186C306.504 23.2562 307.696 23.4467 308.825 23.8911C309.924 24.3356 310.865 24.9388 311.649 25.7007C312.464 26.4702 313.109 27.4055 313.542 28.445C313.975 29.4845 314.185 30.6048 314.16 31.7325V31.7959C314.176 32.9489 313.963 34.0935 313.532 35.161C313.101 36.195 312.46 37.1254 311.649 37.8912C310.832 38.6723 309.873 39.2867 308.825 39.7007C307.696 40.1452 306.504 40.3357 305.186 40.3357H299.318V23.2562ZM305.186 38.5579C306.253 38.5579 307.194 38.3991 308.072 38.0499C308.886 37.745 309.627 37.2711 310.249 36.6587C310.87 36.0463 311.358 35.3091 311.681 34.4944C312.015 33.6571 312.185 32.7623 312.183 31.8594V31.7642C312.183 30.8118 312.026 29.9547 311.681 29.1293C311.357 28.3078 310.869 27.5626 310.249 26.94C309.628 26.3173 308.887 25.8307 308.072 25.5102C307.151 25.1575 306.171 24.9851 305.186 25.0023H301.201V38.5261H305.186V38.5579ZM318.207 23.2562H330.35V25.034H320.121V31.1293H329.283V32.8753H320.09V40.3357H318.207V23.1927V23.2562Z" fill="#C6AAC6"/>
<rect x="1.83301" y="1.5" width="380.333" height="85" rx="42.5" stroke="#331433" stroke-width="3"/>
</svg>
