<svg width="384" height="88" viewBox="0 0 384 88" fill="none" xmlns="http://www.w3.org/2000/svg">
<rect x="2.16699" y="1.5" width="380.333" height="85" rx="42.5" fill="#170617" fill-opacity="0.8"/>
<rect x="30.667" y="26" width="158" height="36" rx="18" fill="#331433"/>
<path d="M63.487 45.108H62.241L62.605 43.036H63.977V41.244H62.913L63.263 39.2H61.415L61.065 41.244H59.035L59.385 39.2H57.537L57.187 41.244H55.647V43.036H56.879L56.515 45.108H55.157V46.9H56.207L55.857 49H57.705L58.069 46.9H60.085L59.735 49H61.583L61.933 46.9H63.487V45.108ZM58.685 42.98H60.799L60.435 45.164H58.321L58.685 42.98ZM74.435 49.168C76.339 49.168 77.445 48.496 78.453 47.418L77.081 46.032C76.311 46.746 75.625 47.18 74.505 47.18C72.825 47.18 71.663 45.78 71.663 44.1V44.072C71.663 42.392 72.853 41.02 74.505 41.02C75.499 41.02 76.241 41.44 77.011 42.126L78.383 40.544C77.487 39.648 76.353 39.032 74.519 39.032C71.509 39.032 69.409 41.314 69.409 44.1V44.128C69.409 46.942 71.551 49.168 74.435 49.168ZM83.5002 49.168C85.8382 49.168 87.5742 47.418 87.5742 45.262V45.234C87.5742 43.064 85.8382 41.356 83.5282 41.356C81.1902 41.356 79.4542 43.106 79.4542 45.262V45.29C79.4542 47.46 81.1902 49.168 83.5002 49.168ZM83.5282 47.334C82.3522 47.334 81.5542 46.368 81.5542 45.262V45.234C81.5542 44.114 82.2822 43.19 83.5002 43.19C84.6762 43.19 85.4742 44.156 85.4742 45.262V45.29C85.4742 46.41 84.7462 47.334 83.5282 47.334ZM89.1151 49H91.2431V44.814C91.2431 43.806 91.7331 43.288 92.5311 43.288C93.3291 43.288 93.7771 43.806 93.7771 44.814V49H95.9051V44.814C95.9051 43.806 96.3951 43.288 97.1931 43.288C97.9911 43.288 98.4391 43.806 98.4391 44.814V49H100.567V44.114C100.567 42.308 99.6151 41.356 98.0331 41.356C97.0111 41.356 96.2271 41.762 95.5691 42.546C95.1771 41.776 94.4491 41.356 93.4551 41.356C92.3771 41.356 91.7331 41.93 91.2431 42.56V41.496H89.1151V49ZM102.46 40.67H104.7V38.78H102.46V40.67ZM102.516 49H104.644V41.496H102.516V49ZM106.642 49H108.77V44.814C108.77 43.806 109.274 43.288 110.1 43.288C110.926 43.288 111.388 43.806 111.388 44.814V49H113.516V44.142C113.516 42.406 112.592 41.356 110.968 41.356C109.904 41.356 109.26 41.93 108.77 42.56V41.496H106.642V49ZM118.725 51.268C120.181 51.268 121.245 50.974 121.959 50.26C122.589 49.63 122.911 48.636 122.911 47.306V41.496H120.783V42.476C120.209 41.846 119.523 41.356 118.361 41.356C116.639 41.356 115.029 42.616 115.029 44.856V44.884C115.029 47.124 116.611 48.384 118.361 48.384C119.495 48.384 120.181 47.936 120.811 47.166V47.53C120.811 48.874 120.125 49.574 118.669 49.574C117.661 49.574 116.919 49.322 116.135 48.888L115.407 50.484C116.359 50.988 117.493 51.268 118.725 51.268ZM118.977 46.62C117.927 46.62 117.157 45.934 117.157 44.884V44.856C117.157 43.834 117.941 43.12 118.977 43.12C120.027 43.12 120.811 43.834 120.811 44.856V44.884C120.811 45.906 120.027 46.62 118.977 46.62ZM132.72 49.14C134.834 49.14 136.318 48.048 136.318 46.102V46.074C136.318 44.366 135.198 43.666 133.21 43.134C131.516 42.686 131.096 42.504 131.096 41.846V41.818C131.096 41.328 131.516 40.964 132.356 40.964C133.196 40.964 134.022 41.328 134.904 41.93L136.024 40.306C135.016 39.508 133.826 39.06 132.384 39.06C130.368 39.06 128.954 40.236 128.954 42.014V42.042C128.954 43.974 130.214 44.548 132.202 45.038C133.84 45.444 134.176 45.738 134.176 46.284V46.312C134.176 46.886 133.658 47.236 132.762 47.236C131.642 47.236 130.732 46.774 129.836 46.046L128.562 47.572C129.738 48.636 131.222 49.14 132.72 49.14ZM141.647 49.168C143.985 49.168 145.721 47.418 145.721 45.262V45.234C145.721 43.064 143.985 41.356 141.675 41.356C139.337 41.356 137.601 43.106 137.601 45.262V45.29C137.601 47.46 139.337 49.168 141.647 49.168ZM141.675 47.334C140.499 47.334 139.701 46.368 139.701 45.262V45.234C139.701 44.114 140.429 43.19 141.647 43.19C142.823 43.19 143.621 44.156 143.621 45.262V45.29C143.621 46.41 142.893 47.334 141.675 47.334ZM150.944 49.168C153.282 49.168 155.018 47.418 155.018 45.262V45.234C155.018 43.064 153.282 41.356 150.972 41.356C148.634 41.356 146.898 43.106 146.898 45.262V45.29C146.898 47.46 148.634 49.168 150.944 49.168ZM150.972 47.334C149.796 47.334 148.998 46.368 148.998 45.262V45.234C148.998 44.114 149.726 43.19 150.944 43.19C152.12 43.19 152.918 44.156 152.918 45.262V45.29C152.918 46.41 152.19 47.334 150.972 47.334ZM156.558 49H158.686V44.814C158.686 43.806 159.19 43.288 160.016 43.288C160.842 43.288 161.304 43.806 161.304 44.814V49H163.432V44.142C163.432 42.406 162.508 41.356 160.884 41.356C159.82 41.356 159.176 41.93 158.686 42.56V41.496H156.558V49Z" fill="#C6AAC6"/>
<path d="M219.934 63.5313H221.309V55.5165H224.218V54.3384H221.291V53.5887C221.291 52.2856 221.826 51.6252 222.898 51.6252C223.379 51.6252 223.736 51.7144 224.236 51.8572V50.6613C223.79 50.5006 223.362 50.4292 222.719 50.4292C221.88 50.4292 221.22 50.6613 220.738 51.1432C220.202 51.6787 219.934 52.4641 219.934 53.5173V54.3206H218.667V55.5165H219.934V63.5313Z" fill="#C6AAC6"/>
<path d="M229.372 63.7455C232.157 63.7455 234.209 61.5499 234.209 58.9259V58.8902C234.209 56.2841 232.192 54.1064 229.408 54.1064C226.605 54.1064 224.588 56.3019 224.588 58.9259V58.9616C224.588 61.5678 226.605 63.7455 229.372 63.7455ZM229.408 62.5138C227.462 62.5138 225.998 60.9073 225.998 58.9259V58.8902C225.998 56.9446 227.373 55.3202 229.372 55.3202C231.318 55.3202 232.799 56.9445 232.799 58.9259V58.9616C232.799 60.8895 231.407 62.5138 229.408 62.5138Z" fill="#C6AAC6"/>
<path d="M236.062 63.5313H237.436V59.8541C237.436 57.0695 239.078 55.6236 241.095 55.6236H241.203V54.1421C239.453 54.0885 238.114 55.1774 237.436 56.7125V54.3027H236.062V63.5313Z" fill="#C6AAC6"/>
<path d="M247.605 63.5313H248.979V53.2852L257.047 63.5313H258.172V51.0361H256.797V61.0501L248.925 51.0361H247.605V63.5313Z" fill="#C6AAC6"/>
<path d="M265.05 63.7455C267.835 63.7455 269.888 61.5499 269.888 58.9259V58.8902C269.888 56.2841 267.87 54.1064 265.086 54.1064C262.283 54.1064 260.266 56.3019 260.266 58.9259V58.9616C260.266 61.5678 262.283 63.7455 265.05 63.7455ZM265.086 62.5138C263.14 62.5138 261.676 60.9073 261.676 58.9259V58.8902C261.676 56.9446 263.051 55.3202 265.05 55.3202C266.996 55.3202 268.477 56.9445 268.477 58.9259V58.9616C268.477 60.8895 267.085 62.5138 265.086 62.5138Z" fill="#C6AAC6"/>
<path d="M275.613 63.7277C277.327 63.7277 278.38 62.7816 279.148 61.6749V63.5313H280.522V50.5006H279.148V56.0699C278.434 55.0167 277.327 54.1064 275.613 54.1064C273.4 54.1064 271.204 55.9092 271.204 58.9081V58.9438C271.204 61.9783 273.4 63.7277 275.613 63.7277ZM275.863 62.496C274.096 62.496 272.614 61.1215 272.614 58.9259V58.8902C272.614 56.6589 274.078 55.338 275.863 55.338C277.577 55.338 279.201 56.766 279.201 58.8902V58.9259C279.201 61.0501 277.577 62.496 275.863 62.496Z" fill="#C6AAC6"/>
<path d="M286.99 63.7455C288.757 63.7455 289.864 63.0672 290.792 62.014L289.935 61.2465C289.168 62.0319 288.311 62.5495 287.026 62.5495C285.384 62.5495 283.973 61.425 283.777 59.4257H291.096C291.114 59.2651 291.114 59.1758 291.114 58.9795C291.114 56.2841 289.543 54.1064 286.812 54.1064C284.241 54.1064 282.385 56.2484 282.385 58.9081V58.9438C282.385 61.7998 284.473 63.7455 286.99 63.7455ZM283.777 58.4083C283.973 56.6232 285.152 55.2666 286.776 55.2666C288.632 55.2666 289.578 56.7482 289.721 58.4083H283.777Z" fill="#C6AAC6"/>
<path d="M295.756 63.7098C296.881 63.7098 297.791 63.3706 298.505 62.6745C299.219 61.9605 299.647 60.8716 299.647 59.39V51.0361H298.219V59.4079C298.219 61.3893 297.184 62.4067 295.774 62.4067C294.471 62.4067 293.686 61.782 292.918 60.6217L291.9 61.4964C292.686 62.7816 293.882 63.7098 295.756 63.7098Z" fill="#C6AAC6"/>
<path d="M306.627 63.7098C309.108 63.7098 310.894 62.3175 310.894 60.1755V60.1397C310.894 58.2298 309.608 57.2302 306.824 56.6054C304.057 56.0342 303.432 55.3559 303.432 54.1778V54.1421C303.432 52.9996 304.45 52.125 306.092 52.125C307.377 52.125 308.537 52.5355 309.698 53.4816L310.519 52.3927C309.233 51.3753 307.966 50.8576 306.127 50.8576C303.753 50.8576 302.022 52.3213 302.022 54.267V54.3027C302.022 56.3555 303.343 57.2837 306.217 57.9085C308.841 58.4797 309.465 59.1223 309.465 60.2826V60.3183C309.465 61.5499 308.377 62.4424 306.681 62.4424C304.949 62.4424 303.7 61.8712 302.397 60.6753L301.522 61.7106C303.022 63.0672 304.628 63.7098 306.627 63.7098Z" fill="#C6AAC6"/>
<path d="M218.667 24.6037H222.401V41.6831H218.667V24.5402V24.6037ZM226.605 24.6037H234.356C236.489 24.6037 238.121 25.1751 239.282 26.318C239.77 26.8433 240.149 27.4623 240.397 28.1384C240.645 28.8145 240.757 29.5341 240.725 30.2545V30.2863C240.725 31.6831 240.411 32.826 239.721 33.6831C239.044 34.5496 238.142 35.209 237.117 35.5879L241.227 41.7149H236.897L233.257 36.2228H230.371V41.7149H226.668V24.5402L226.605 24.6037ZM234.136 32.8894C235.046 32.8894 235.736 32.699 236.238 32.2545C236.482 32.0317 236.674 31.7563 236.799 31.4486C236.924 31.141 236.979 30.8088 236.96 30.4767V30.445C236.96 29.6196 236.709 29.0164 236.207 28.6037C235.673 28.191 234.952 27.9688 234.042 27.9688H230.339V32.8894H234.136ZM252.335 42.0006C249.931 42.0281 247.612 41.1055 245.871 39.4292C245.052 38.6222 244.407 37.6532 243.975 36.5826C243.543 35.5121 243.334 34.3629 243.361 33.2069V33.1117C243.34 31.3591 243.844 29.6412 244.807 28.1846C245.771 26.728 247.148 25.6012 248.758 24.9529C249.856 24.5085 251.048 24.2545 252.366 24.2545C254.763 24.2438 257.07 25.1774 258.798 26.8577C259.617 27.6646 260.262 28.6336 260.694 29.7042C261.126 30.7748 261.335 31.9239 261.309 33.0799V33.1117C261.33 34.8642 260.826 36.5822 259.862 38.0388C258.899 39.4953 257.521 40.6221 255.912 41.2704C254.779 41.7499 253.563 41.9981 252.335 42.0006ZM252.335 38.5085C253.019 38.518 253.699 38.3848 254.33 38.1172C254.962 37.8495 255.532 37.4533 256.006 36.953C256.934 35.934 257.44 34.5927 257.418 33.2069V33.1117C257.448 31.6997 256.93 30.332 255.974 29.3021C255.501 28.7991 254.932 28.3989 254.3 28.126C253.669 27.8531 252.99 27.7132 252.303 27.7148C251.622 27.7156 250.948 27.8568 250.322 28.1297C249.696 28.4026 249.132 28.8015 248.664 29.3021C247.716 30.3241 247.198 31.6788 247.22 33.0799V33.1117C247.219 34.5185 247.733 35.8759 248.664 36.9212C249.134 37.3974 249.668 37.7784 250.295 38.0641C250.923 38.3815 251.613 38.5085 252.366 38.5085H252.335ZM264.635 24.6037H268.086L275.993 35.1434V24.6037H279.633V41.6831H276.495L268.274 30.7942V41.6831H264.603V24.5402L264.635 24.6037Z" fill="#C6AAC6"/>
<path d="M283.493 24.6039H289.831C290.772 24.6039 291.651 24.7309 292.435 24.9848C293.22 25.2388 293.879 25.588 294.444 26.0325C294.997 26.5358 295.437 27.1532 295.735 27.8432C296.033 28.5332 296.181 29.2797 296.169 30.0325V30.0642C296.169 31.0166 295.981 31.8103 295.636 32.5087C295.291 33.2071 294.789 33.7785 294.192 34.2547C293.563 34.7344 292.85 35.0898 292.09 35.3023C291.274 35.5563 290.427 35.6515 289.517 35.6515H285.438V41.6833H283.493V24.6039ZM289.611 33.9373C290.302 33.9373 290.929 33.842 291.494 33.6515C292.029 33.4945 292.529 33.2359 292.969 32.8896C293.37 32.5612 293.691 32.1445 293.908 31.6714C294.126 31.1983 294.234 30.6812 294.224 30.1595V30.096C294.224 28.8896 293.847 27.9372 293 27.3341C292.153 26.7309 291.055 26.3817 289.706 26.3817H285.407V33.9373H289.611ZM299.652 24.6039H305.52C306.838 24.6039 308.03 24.7944 309.159 25.2388C310.258 25.6833 311.199 26.2864 311.983 27.0483C312.798 27.8179 313.443 28.7531 313.876 29.7926C314.309 30.8322 314.519 31.9525 314.494 33.0801V33.1436C314.51 34.2966 314.297 35.4411 313.866 36.5087C313.435 37.5427 312.794 38.4731 311.983 39.2389C311.166 40.02 310.207 40.6343 309.159 41.0484C308.03 41.4928 306.838 41.6833 305.52 41.6833H299.652V24.6039ZM305.52 39.9055C306.586 39.9055 307.528 39.7468 308.406 39.3976C309.22 39.0927 309.961 38.6188 310.583 38.0064C311.204 37.394 311.692 36.6567 312.015 35.842C312.349 35.0048 312.519 34.11 312.517 33.2071V33.1119C312.517 32.1595 312.36 31.3023 312.015 30.4769C311.691 29.6555 311.203 28.9102 310.583 28.2876C309.962 27.665 309.221 27.1783 308.406 26.8579C307.485 26.5051 306.505 26.3328 305.52 26.3499H301.535V39.8738H305.52V39.9055ZM318.541 24.6039H330.684V26.3817H320.455V32.4769H329.617V34.223H320.424V41.6833H318.541V24.5404V24.6039Z" fill="#C6AAC6"/>
<rect x="2.16699" y="1.5" width="380.333" height="85" rx="42.5" stroke="#331433" stroke-width="3"/>
</svg>
