<svg width="384" height="88" viewBox="0 0 384 88" fill="none" xmlns="http://www.w3.org/2000/svg">
<rect x="1.5" y="1.5" width="380.333" height="85" rx="42.5" fill="#170617" fill-opacity="0.8"/>
<rect x="30" y="26" width="127" height="36" rx="18" fill="#C6AAC6"/>
<path d="M62.82 45.108H61.574L61.938 43.036H63.31V41.244H62.246L62.596 39.2H60.748L60.398 41.244H58.368L58.718 39.2H56.87L56.52 41.244H54.98V43.036H56.212L55.848 45.108H54.49V46.9H55.54L55.19 49H57.038L57.402 46.9H59.418L59.068 49H60.916L61.266 46.9H62.82V45.108ZM58.018 42.98H60.132L59.768 45.164H57.654L58.018 42.98ZM69.176 49H71.332V45.864H73.026L75.126 49H77.646L75.252 45.5C76.498 45.038 77.352 44.044 77.352 42.462V42.434C77.352 41.496 77.072 40.754 76.512 40.194C75.854 39.536 74.902 39.2 73.656 39.2H69.176V49ZM71.332 43.96V41.146H73.474C74.538 41.146 75.168 41.608 75.168 42.546V42.574C75.168 43.414 74.58 43.96 73.516 43.96H71.332ZM82.4885 49.168C83.8465 49.168 84.8405 48.65 85.5545 47.768L84.3365 46.69C83.7345 47.236 83.2305 47.46 82.5165 47.46C81.5645 47.46 80.8925 46.956 80.6825 45.99H85.9045C85.9185 45.78 85.9325 45.598 85.9325 45.43C85.9325 43.302 84.7845 41.356 82.2785 41.356C80.0945 41.356 78.5685 43.12 78.5685 45.262V45.29C78.5685 47.586 80.2345 49.168 82.4885 49.168ZM80.6545 44.66C80.8225 43.694 81.3825 43.064 82.2785 43.064C83.1745 43.064 83.7345 43.708 83.8605 44.66H80.6545ZM87.6164 49H89.7444V38.78H87.6164V49ZM95.299 49.168C96.657 49.168 97.651 48.65 98.365 47.768L97.147 46.69C96.545 47.236 96.041 47.46 95.327 47.46C94.375 47.46 93.703 46.956 93.493 45.99H98.715C98.729 45.78 98.743 45.598 98.743 45.43C98.743 43.302 97.595 41.356 95.089 41.356C92.905 41.356 91.379 43.12 91.379 45.262V45.29C91.379 47.586 93.045 49.168 95.299 49.168ZM93.465 44.66C93.633 43.694 94.193 43.064 95.089 43.064C95.985 43.064 96.545 43.708 96.671 44.66H93.465ZM102.457 49.14C103.507 49.14 104.207 48.762 104.725 48.188V49H106.783V44.646C106.783 43.638 106.531 42.812 105.971 42.252C105.425 41.706 104.613 41.412 103.437 41.412C102.163 41.412 101.351 41.664 100.525 42.014L101.057 43.638C101.743 43.372 102.303 43.232 103.129 43.232C104.193 43.232 104.739 43.708 104.739 44.604V44.73C104.193 44.548 103.675 44.422 102.905 44.422C101.127 44.422 99.881 45.192 99.881 46.816V46.844C99.881 48.342 101.043 49.14 102.457 49.14ZM103.101 47.67C102.415 47.67 101.939 47.334 101.939 46.76V46.732C101.939 46.06 102.499 45.696 103.409 45.696C103.927 45.696 104.389 45.808 104.767 45.976V46.354C104.767 47.138 104.109 47.67 103.101 47.67ZM111.246 49.14C112.87 49.14 114.116 48.384 114.116 46.718V46.69C114.116 45.318 112.898 44.8 111.848 44.464C111.036 44.212 110.322 43.96 110.322 43.568V43.54C110.322 43.246 110.588 43.022 111.106 43.022C111.652 43.022 112.394 43.288 113.136 43.722L113.948 42.252C113.122 41.706 112.1 41.384 111.148 41.384C109.636 41.384 108.404 42.238 108.404 43.764V43.792C108.404 45.248 109.594 45.752 110.644 46.046C111.47 46.312 112.198 46.452 112.198 46.914V46.942C112.198 47.278 111.918 47.502 111.302 47.502C110.588 47.502 109.762 47.208 108.936 46.606L108.026 48.006C109.034 48.79 110.182 49.14 111.246 49.14ZM119.197 49.168C120.555 49.168 121.549 48.65 122.263 47.768L121.045 46.69C120.443 47.236 119.939 47.46 119.225 47.46C118.273 47.46 117.601 46.956 117.391 45.99H122.613C122.627 45.78 122.641 45.598 122.641 45.43C122.641 43.302 121.493 41.356 118.987 41.356C116.803 41.356 115.277 43.12 115.277 45.262V45.29C115.277 47.586 116.943 49.168 119.197 49.168ZM117.363 44.66C117.531 43.694 118.091 43.064 118.987 43.064C119.883 43.064 120.443 43.708 120.569 44.66H117.363ZM127.307 49.14C128.427 49.14 129.127 48.636 129.645 47.922V49H131.773V38.78H129.645V42.476C129.141 41.874 128.441 41.356 127.307 41.356C125.529 41.356 123.891 42.728 123.891 45.234V45.262C123.891 47.768 125.557 49.14 127.307 49.14ZM127.853 47.334C126.859 47.334 126.019 46.508 126.019 45.262V45.234C126.019 43.974 126.859 43.162 127.853 43.162C128.847 43.162 129.673 43.988 129.673 45.234V45.262C129.673 46.508 128.847 47.334 127.853 47.334Z" fill="#331433"/>
<path d="M188.264 63.5202H189.635V55.5193H192.537V54.3432H189.617V53.5948C189.617 52.294 190.151 51.6347 191.22 51.6347C191.7 51.6347 192.057 51.7238 192.555 51.8663V50.6724C192.11 50.5121 191.683 50.4408 191.042 50.4408C190.205 50.4408 189.546 50.6724 189.065 51.1536C188.531 51.6881 188.264 52.4722 188.264 53.5235V54.3254H187V55.5193H188.264V63.5202Z" fill="#C6AAC6"/>
<path d="M197.646 63.734C200.423 63.734 202.471 61.5422 202.471 58.9228V58.8872C202.471 56.2855 200.459 54.1116 197.681 54.1116C194.886 54.1116 192.874 56.3034 192.874 58.9228V58.9584C192.874 61.5601 194.886 63.734 197.646 63.734ZM197.681 62.5045C195.741 62.5045 194.281 60.9007 194.281 58.9228V58.8872C194.281 56.9448 195.652 55.3233 197.646 55.3233C199.587 55.3233 201.064 56.9448 201.064 58.9228V58.9584C201.064 60.8829 199.676 62.5045 197.681 62.5045Z" fill="#C6AAC6"/>
<path d="M204.287 63.5202H205.658V59.8494C205.658 57.0696 207.296 55.6262 209.308 55.6262H209.415V54.1472C207.67 54.0938 206.334 55.1807 205.658 56.7132V54.3076H204.287V63.5202Z" fill="#C6AAC6"/>
<path d="M218.372 63.6984C219.493 63.6984 220.402 63.3598 221.114 62.6649C221.826 61.9521 222.253 60.8651 222.253 59.3861V51.0467H220.829V59.4039C220.829 61.3819 219.796 62.3976 218.39 62.3976C217.09 62.3976 216.306 61.7739 215.541 60.6156L214.526 61.4888C215.309 62.7718 216.502 63.6984 218.372 63.6984Z" fill="#C6AAC6"/>
<path d="M227.421 63.7162C229.059 63.7162 230.109 62.9678 230.75 62.1303V63.5202H232.068V57.8893C232.068 56.731 231.747 55.8222 231.124 55.1986C230.448 54.5214 229.451 54.1829 228.151 54.1829C226.798 54.1829 225.818 54.468 224.803 54.9491L225.213 56.0717C226.068 55.6619 226.922 55.3946 228.008 55.3946C229.735 55.3946 230.75 56.2499 230.75 57.9071V58.2278C229.913 57.9962 229.112 57.8358 227.919 57.8358C225.587 57.8358 223.984 58.8872 223.984 60.8116V60.8473C223.984 62.7539 225.712 63.7162 227.421 63.7162ZM227.688 62.6292C226.459 62.6292 225.373 61.9521 225.373 60.7938V60.7582C225.373 59.5999 226.335 58.8515 228.062 58.8515C229.201 58.8515 230.074 59.0475 230.768 59.2435V60.1345C230.768 61.5957 229.397 62.6292 227.688 62.6292Z" fill="#C6AAC6"/>
<path d="M237.054 63.5915H238.265L242.271 54.3076H240.793L237.678 61.9521L234.58 54.3076H233.066L237.054 63.5915Z" fill="#C6AAC6"/>
<path d="M246.046 63.7162C247.684 63.7162 248.735 62.9678 249.376 62.1303V63.5202H250.693V57.8893C250.693 56.731 250.373 55.8222 249.75 55.1986C249.073 54.5214 248.076 54.1829 246.776 54.1829C245.423 54.1829 244.444 54.468 243.429 54.9491L243.838 56.0717C244.693 55.6619 245.548 55.3946 246.634 55.3946C248.361 55.3946 249.376 56.2499 249.376 57.9071V58.2278C248.539 57.9962 247.738 57.8358 246.545 57.8358C244.212 57.8358 242.61 58.8872 242.61 60.8116V60.8473C242.61 62.7539 244.337 63.7162 246.046 63.7162ZM246.313 62.6292C245.085 62.6292 243.999 61.9521 243.999 60.7938V60.7582C243.999 59.5999 244.96 58.8515 246.687 58.8515C247.827 58.8515 248.699 59.0475 249.394 59.2435V60.1345C249.394 61.5957 248.023 62.6292 246.313 62.6292Z" fill="#C6AAC6"/>
<path d="M187 24.6153H190.734V41.6947H187V24.5518V24.6153ZM194.938 24.6153H202.689C204.822 24.6153 206.454 25.1867 207.615 26.3296C208.103 26.8549 208.482 27.4739 208.73 28.15C208.978 28.8261 209.09 29.5457 209.058 30.2661V30.2979C209.058 31.6947 208.744 32.8375 208.054 33.6947C207.377 34.5612 206.475 35.2206 205.45 35.5995L209.56 41.7265H205.23L201.59 36.2344H198.704V41.7265H195.001V24.5518L194.938 24.6153ZM202.469 32.901C203.379 32.901 204.069 32.7106 204.571 32.2661C204.815 32.0433 205.007 31.7679 205.132 31.4602C205.257 31.1525 205.312 30.8204 205.293 30.4883V30.4566C205.293 29.6312 205.042 29.028 204.54 28.6153C204.006 28.2026 203.285 27.9804 202.375 27.9804H198.672V32.901H202.469ZM220.668 42.0122C218.264 42.0397 215.945 41.1171 214.204 39.4408C213.385 38.6338 212.74 37.6648 212.308 36.5942C211.876 35.5237 211.667 34.3745 211.694 33.2185V33.1233C211.673 31.3707 212.177 29.6528 213.14 28.1962C214.104 26.7396 215.481 25.6128 217.091 24.9645C218.189 24.5201 219.381 24.2661 220.699 24.2661C223.096 24.2553 225.403 25.189 227.131 26.8693C227.95 27.6762 228.595 28.6452 229.027 29.7158C229.459 30.7863 229.668 31.9355 229.642 33.0915V33.1233C229.663 34.8758 229.159 36.5938 228.195 38.0503C227.232 39.5069 225.854 40.6337 224.245 41.282C223.112 41.7615 221.896 42.0097 220.668 42.0122ZM220.668 38.5201C221.352 38.5296 222.032 38.3964 222.663 38.1288C223.295 37.8611 223.865 37.4648 224.339 36.9645C225.268 35.9456 225.773 34.6043 225.751 33.2185V33.1233C225.781 31.7113 225.263 30.3436 224.307 29.3137C223.834 28.8107 223.265 28.4105 222.633 28.1376C222.002 27.8647 221.323 27.7248 220.636 27.7264C219.955 27.7272 219.281 27.8684 218.655 28.1413C218.029 28.4142 217.465 28.8131 216.997 29.3137C216.049 30.3357 215.531 31.6904 215.553 33.0915V33.1233C215.552 34.5301 216.066 35.8875 216.997 36.9328C217.467 37.409 218.001 37.7899 218.628 38.0757C219.256 38.3931 219.946 38.5201 220.699 38.5201H220.668ZM232.968 24.6153H236.419L244.326 35.155V24.6153H247.966V41.6947H244.828L236.607 30.8058V41.6947H232.936V24.5518L232.968 24.6153Z" fill="#C6AAC6"/>
<path d="M251.826 24.6155H258.164C259.105 24.6155 259.984 24.7425 260.768 24.9964C261.553 25.2504 262.212 25.5996 262.777 26.0441C263.33 26.5474 263.77 27.1648 264.068 27.8548C264.366 28.5448 264.514 29.2913 264.502 30.0441V30.0758C264.502 31.0282 264.314 31.8219 263.969 32.5203C263.624 33.2187 263.122 33.7901 262.526 34.2663C261.896 34.746 261.183 35.1014 260.423 35.3139C259.607 35.5679 258.76 35.6631 257.85 35.6631H253.771V41.6949H251.826V24.6155ZM257.944 33.9488C258.635 33.9488 259.262 33.8536 259.827 33.6631C260.362 33.506 260.862 33.2475 261.302 32.9012C261.703 32.5728 262.024 32.1561 262.241 31.683C262.459 31.2099 262.567 30.6928 262.557 30.1711V30.1076C262.557 28.9012 262.18 27.9488 261.333 27.3456C260.486 26.7425 259.388 26.3933 258.039 26.3933H253.74V33.9488H257.944ZM267.985 24.6155H273.853C275.171 24.6155 276.363 24.806 277.492 25.2504C278.591 25.6948 279.532 26.298 280.316 27.0599C281.131 27.8295 281.776 28.7647 282.209 29.8042C282.642 30.8438 282.852 31.9641 282.827 33.0917V33.1552C282.843 34.3082 282.63 35.4527 282.199 36.5203C281.768 37.5543 281.127 38.4847 280.316 39.2505C279.499 40.0316 278.54 40.6459 277.492 41.06C276.363 41.5044 275.171 41.6949 273.853 41.6949H267.985V24.6155ZM273.853 39.9171C274.92 39.9171 275.861 39.7584 276.739 39.4092C277.553 39.1043 278.294 38.6304 278.916 38.018C279.537 37.4056 280.025 36.6683 280.348 35.8536C280.682 35.0164 280.852 34.1216 280.85 33.2187V33.1235C280.85 32.1711 280.693 31.3139 280.348 30.4885C280.024 29.6671 279.536 28.9218 278.916 28.2992C278.295 27.6766 277.554 27.1899 276.739 26.8695C275.818 26.5167 274.838 26.3444 273.853 26.3615H269.868V39.8854H273.853V39.9171ZM286.874 24.6155H299.017V26.3933H288.788V32.4885H297.95V34.2346H288.757V41.6949H286.874V24.552V24.6155Z" fill="#C6AAC6"/>
<rect x="1.5" y="1.5" width="380.333" height="85" rx="42.5" stroke="#431F43" stroke-width="3"/>
</svg>
